<?xml version="1.0" standalone="no"?>
<!DOCTYPE svg PUBLIC "-//W3C//DTD SVG 20010904//EN"
 "http://www.w3.org/TR/2001/REC-SVG-20010904/DTD/svg10.dtd">
<svg version="1.0" xmlns="http://www.w3.org/2000/svg"
 width="2250.000000pt" height="2250.000000pt" viewBox="0 0 2250.000000 2250.000000"
 preserveAspectRatio="xMidYMid meet">
<metadata>
Created by potrace 1.14, written by Peter Selinger 2001-2017
</metadata>
<g transform="translate(0.000000,2250.000000) scale(0.100000,-0.100000)"
fill="#000000" stroke="none">
<path d="M10868 22495 c-2 -1 -75 -6 -163 -10 -88 -3 -173 -8 -190 -10 -16 -2
-76 -6 -132 -10 -55 -3 -112 -8 -125 -10 -12 -2 -61 -6 -108 -10 -47 -4 -92
-8 -100 -10 -8 -1 -46 -6 -83 -9 -37 -4 -78 -9 -89 -11 -12 -3 -46 -7 -77 -10
-31 -3 -66 -7 -79 -10 -13 -2 -56 -9 -95 -14 -40 -6 -83 -13 -97 -15 -14 -3
-43 -7 -65 -11 -22 -3 -78 -12 -125 -20 -47 -8 -98 -17 -115 -20 -16 -3 -73
-14 -125 -25 -52 -11 -109 -22 -126 -25 -108 -18 -656 -151 -716 -174 -12 -5
-27 -9 -33 -10 -59 -9 -482 -143 -730 -231 -171 -61 -518 -195 -620 -240 -408
-179 -750 -345 -991 -481 -17 -9 -40 -22 -50 -28 -11 -5 -75 -43 -144 -82 -69
-39 -138 -79 -155 -89 -307 -175 -844 -541 -1190 -813 -162 -128 -504 -413
-535 -447 -3 -3 -25 -23 -50 -44 -206 -179 -637 -610 -866 -866 -27 -30 -51
-57 -54 -60 -6 -5 -188 -218 -219 -255 -440 -534 -807 -1063 -1125 -1623 -46
-81 -94 -165 -107 -187 -47 -84 -298 -586 -354 -710 -32 -71 -73 -163 -92
-203 -18 -40 -33 -78 -33 -85 0 -7 -4 -17 -9 -22 -5 -6 -39 -86 -76 -180 -36
-93 -70 -179 -75 -190 -5 -11 -23 -60 -40 -110 -18 -49 -36 -99 -40 -110 -5
-11 -19 -49 -30 -85 -12 -36 -26 -74 -30 -85 -19 -44 -167 -529 -186 -605 -2
-8 -17 -69 -35 -135 -32 -124 -115 -470 -123 -515 -2 -14 -9 -45 -15 -70 -5
-25 -12 -61 -16 -80 -3 -19 -10 -57 -15 -85 -13 -64 -16 -81 -25 -135 -4 -25
-9 -54 -11 -65 -3 -11 -7 -36 -10 -55 -2 -19 -7 -46 -10 -60 -2 -14 -6 -34 -8
-46 -2 -12 -7 -45 -11 -74 -4 -29 -8 -60 -10 -69 -1 -9 -6 -43 -10 -76 -4 -32
-8 -66 -10 -75 -5 -26 -14 -102 -20 -160 -3 -30 -7 -71 -10 -90 -2 -19 -7 -64
-10 -100 -4 -36 -8 -85 -11 -110 -3 -25 -7 -81 -10 -125 -3 -44 -7 -105 -9
-135 -20 -283 -26 -1040 -12 -1290 15 -246 17 -277 22 -337 3 -35 7 -93 11
-130 3 -38 7 -83 10 -102 2 -18 7 -59 9 -90 3 -31 10 -90 15 -131 5 -41 12
-96 14 -122 3 -26 8 -58 10 -70 3 -13 8 -45 11 -73 7 -60 56 -363 70 -435 3
-14 8 -38 10 -55 65 -386 247 -1079 405 -1539 76 -222 180 -497 229 -608 12
-26 21 -50 21 -53 0 -19 194 -445 305 -670 183 -371 374 -714 571 -1026 133
-210 384 -580 414 -609 3 -3 21 -27 40 -55 38 -55 230 -307 240 -315 3 -3 17
-21 30 -40 14 -19 32 -42 40 -50 8 -9 65 -77 126 -151 203 -245 417 -479 680
-743 170 -169 255 -250 455 -431 86 -79 308 -269 384 -330 28 -21 52 -42 55
-45 8 -10 345 -268 445 -341 802 -586 1745 -1093 2675 -1439 519 -194 1027
-342 1555 -456 66 -14 129 -28 140 -30 11 -3 43 -9 70 -14 67 -12 105 -19 135
-25 22 -5 131 -24 230 -39 19 -3 44 -7 55 -9 50 -10 94 -17 141 -22 28 -3 61
-7 73 -10 13 -2 49 -7 80 -11 31 -3 63 -8 71 -9 18 -3 119 -14 370 -40 25 -2
86 -7 135 -10 50 -4 108 -8 130 -10 292 -26 1283 -27 1510 0 17 2 73 6 125 9
52 4 111 8 130 11 19 2 67 6 105 10 39 3 84 7 100 9 17 2 57 7 90 10 33 4 71
8 85 11 14 2 48 7 75 10 57 6 185 24 230 31 17 3 41 7 55 9 14 2 39 6 55 9 27
5 142 24 190 31 11 2 45 9 75 14 30 6 66 13 80 16 14 3 50 9 80 15 98 19 519
116 630 145 37 10 162 45 230 65 41 12 80 23 85 24 66 17 142 42 380 121 154
51 294 99 310 106 17 6 35 13 40 15 9 2 53 18 262 99 37 15 77 30 88 35 11 5
108 47 215 94 264 113 653 299 687 328 7 6 13 7 13 3 0 -4 6 -3 13 3 6 5 57
34 112 63 55 28 116 62 135 73 19 12 46 27 60 34 226 115 771 465 1135 729
276 200 676 524 901 729 280 255 560 534 788 784 116 128 132 146 196 220 36
41 67 77 70 80 41 39 385 477 526 670 86 118 388 564 437 645 10 17 66 111
126 210 133 222 268 468 399 730 106 213 122 247 234 495 58 128 171 408 243
600 73 198 211 604 220 650 3 14 9 36 15 50 8 20 48 162 85 300 45 166 125
497 139 575 3 17 10 48 15 70 5 22 12 54 15 70 19 100 39 212 41 225 1 8 5 29
8 45 8 38 13 65 27 162 6 43 15 101 20 128 6 28 12 70 15 95 2 25 11 101 20
170 25 203 33 275 40 365 3 33 8 98 12 145 18 196 8 1774 -11 1890 -2 14 -7
63 -11 110 -3 47 -8 94 -10 105 -3 11 -7 45 -10 75 -4 48 -16 147 -30 245 -7
51 -45 309 -50 335 -6 34 -34 188 -40 225 -3 17 -8 41 -10 55 -3 14 -8 39 -11
55 -3 17 -16 80 -30 140 -13 61 -27 123 -30 138 -6 34 -116 469 -139 547 -9
30 -18 64 -20 75 -3 11 -28 92 -55 180 -28 88 -52 167 -54 175 -6 24 -125 369
-150 435 -113 296 -226 569 -310 748 -25 55 -46 101 -46 103 0 7 -207 419
-260 519 -134 252 -290 522 -404 700 -272 423 -477 712 -755 1060 -109 136
-94 118 -272 325 -275 319 -658 712 -935 960 -53 48 -222 197 -259 229 -306
264 -715 574 -1065 806 -74 50 -136 93 -138 98 -2 4 -8 7 -13 7 -6 0 -38 19
-72 41 -124 83 -461 282 -632 374 -38 21 -89 48 -112 61 -57 33 -371 190 -518
259 -491 232 -1093 458 -1635 614 -163 46 -395 109 -431 116 -8 2 -47 11 -85
20 -38 9 -80 18 -94 21 -45 10 -54 12 -120 28 -36 8 -78 17 -95 20 -36 7 -71
14 -105 21 -14 3 -34 7 -45 9 -21 4 -169 31 -220 41 -41 7 -201 33 -250 40
-23 3 -52 7 -65 10 -13 2 -46 7 -74 10 -28 3 -62 7 -76 10 -14 2 -50 7 -80 10
-30 4 -66 8 -80 10 -14 2 -56 6 -93 10 -37 3 -77 8 -87 10 -11 2 -59 7 -107
10 -48 4 -104 8 -123 10 -19 2 -87 7 -151 10 -64 3 -138 8 -165 11 -52 5 -980
14 -986 9z"/>
</g>
</svg>
